# xmcd
#
# Track frame offsets:
#	150
#	40467
#	80534
#	120893
#	160744
#	200971
#	222337
#	262835
#	302839
#	331927
#
# Disc length: 4664 seconds
#
# Revision: 1
# Processed by: cddbd v1.4PL0 Copyright (c) Steve Scherf et al.
# Submitted via: EasyCDDAExtractor 6.0.0.1
#
DISCID=8712360a
DTITLE=Heinrich Unterhofer - Ship of Fools (Eye Music)
DYEAR=1900
DGENRE=
TTITLE0=The Ship - La Nave
TTITLE1=Shipping - Imbarco
TTITLE2=Hold - Stiva
TTITLE3=Engine Room - Sala macchine
TTITLE4=Saloon Deck - Ponte di classe
TTITLE5=Flood - Tempesta
TTITLE6=Life boats - Scialuppe in mare
TTITLE7=Depths of Hell - Discesa all'inferno
TTITLE8=Deep death blue - Profonda morte blu
TTITLE9=Fluid - Fluido
EXTD=
EXTT0=
EXTT1=
EXTT2=
EXTT3=
EXTT4=
EXTT5=
EXTT6=
EXTT7=
EXTT8=
EXTT9=
PLAYORDER=
